PathFileType	4	(X/Y/Z)	./resultDataOpenSim/trcMotMarkerGrf/sub10/qtm-05-03.trc
DataRate	CameraRate	NumFrames	NumMarkers	Units	OrigDataRate	OrigDataStartFrame	OrigNumFrames
250.000000	250.000000	12	24	m	250.000000	449	513
Frame#	Time	L.Toe.Tip			R.Toe.Tip			L.Ankle.Lat			R.Ankle.Lat			L.Ankle.Med			R.Ankle.Med			L.Heel			R.Heel			L.Knee.Lat			R.Knee.Lat			L.Knee.Med			R.Knee.Med			L.Thigh.Upper			R.Thigh.Upper			L.ASIS			R.ASIS			V.Sacral			L.Acromium			R.Acromium			C7			L.Elbow			R.Elbow			L.Wrist.Lat			R.Wrist.Lat
		X1	Y1	Z1	X2	Y2	Z2	X3	Y3	Z3	X4	Y4	Z4	X5	Y5	Z5	X6	Y6	Z6	X7	Y7	Z7	X8	Y8	Z8	X9	Y9	Z9	X10	Y10	Z10	X11	Y11	Z11	X12	Y12	Z12	X13	Y13	Z13	X14	Y14	Z14	X15	Y15	Z15	X16	Y16	Z16	X17	Y17	Z17	X18	Y18	Z18	X19	Y19	Z19	X20	Y20	Z20	X21	Y21	Z21	X22	Y22	Z22	X23	Y23	Z23	X24	Y24	Z24

449	1.792	1.6625577	0.11820679	-0.26958402	0.91680365	0.038877042	-0.077914338	1.5338176	0.087677784	-0.30264451	0.7864423	0.090712254	-0.038539517	1.5338086	0.10916812	-0.2221151	0.81426434	0.11044173	-0.12266785	1.4896704	0.032563792	-0.25820125	0.73049562	0.082717494	-0.085199687	1.3845925	0.45364737	-0.30450259	0.99357151	0.43721228	-0.0018990323	1.4033477	0.42430846	-0.18584946	1.0245643	0.43034429	-0.12722909	1.2403855	0.80313329	-0.33110502	1.1096779	0.83314965	0.039026055	1.2710218	0.91181946	-0.24826956	1.2091298	0.91640108	-0.004650696	1.0467727	0.91767114	-0.19002162	1.1749406	1.3859303	-0.2908795	1.1912431	1.3632113	0.031914049	1.0980006	1.4072198	-0.12713391	0.98049426	1.1183451	-0.37389711	1.2411153	1.0192027	0.13301606	0.99019038	0.88752504	-0.45031905	1.4885872	0.98103755	0.12391718
450	1.796	1.6679136	0.11656924	-0.26829089	0.91698653	0.038877228	-0.077890926	1.5394719	0.086377874	-0.3020109	0.78746088	0.09217236	-0.038368138	1.5391791	0.10783656	-0.22151484	0.81536369	0.11158621	-0.12248451	1.4950079	0.031155638	-0.25740675	0.7313595	0.084807341	-0.084919377	1.3919994	0.45329293	-0.30440232	0.998099	0.43652399	-0.0023149312	1.4099547	0.42363155	-0.18585721	1.0291141	0.42942474	-0.12746043	1.2471208	0.80227875	-0.33155326	1.1151419	0.83219568	0.038160625	1.2773663	0.91052432	-0.24854339	1.2147572	0.91519888	-0.0050138287	1.0524747	0.91708657	-0.19165063	1.1806579	1.3849212	-0.29179806	1.1971458	1.3622196	0.03097849	1.1038049	1.4060817	-0.12798535	0.98552154	1.1176436	-0.37358334	1.2480403	1.0184086	0.13136257	0.99380258	0.88713365	-0.45098681	1.4952354	0.97929799	0.12109884
451	1.8	1.6727593	0.114439	-0.26716823	0.91717891	0.038868128	-0.07786456	1.5445131	0.084878552	-0.30130298	0.78864861	0.093641888	-0.03823884	1.544027	0.10628622	-0.22087375	0.81655366	0.11280598	-0.12228062	1.4996406	0.029725099	-0.25676249	0.73231408	0.087024516	-0.084612594	1.3994586	0.4529639	-0.30427693	1.0028856	0.43579608	-0.0027596252	1.4167742	0.42308354	-0.18587653	1.033766	0.42851475	-0.12772589	1.2537233	0.80161756	-0.3320117	1.12072	0.83122367	0.037270734	1.283781	0.90925445	-0.24879252	1.2205017	0.91398406	-0.0054053311	1.058583	0.91649154	-0.19336584	1.1863924	1.3839682	-0.29275391	1.2030525	1.3613261	0.03000909	1.1096068	1.4050268	-0.1288477	0.99064603	1.1169614	-0.37327766	1.2548119	1.0176559	0.12964635	0.99763216	0.88674432	-0.45168075	1.501766	0.97754938	0.11822783
452	1.804	1.6771065	0.11187019	-0.26619969	0.91739534	0.038856021	-0.077836389	1.5489712	0.083186571	-0.30052902	0.78998189	0.095159062	-0.038106273	1.5483878	0.10455312	-0.22017625	0.81783745	0.11409281	-0.12205701	1.5036115	0.028265222	-0.25622465	0.73336777	0.089381121	-0.084282168	1.4069645	0.45264366	-0.30413944	1.0077431	0.43509623	-0.0032127432	1.4237822	0.42266701	-0.18587558	1.0385136	0.42761749	-0.12802766	1.2601842	0.80114198	-0.33247936	1.1263127	0.8302225	0.036394816	1.2902687	0.90802373	-0.24904229	1.2263892	0.91274784	-0.0058417721	1.0650574	0.91580405	-0.19493909	1.1921499	1.3830729	-0.29374668	1.2089742	1.3605183	0.029007583	1.1154332	1.404038	-0.12973035	0.99585939	1.1162874	-0.37299743	1.2614248	1.0169306	0.12788596	1.0016573	0.88635878	-0.45239281	1.5081926	0.97580267	0.11530683
453	1.808	1.6810693	0.10894316	-0.26529964	0.91765024	0.038848562	-0.077808451	1.5529163	0.081311435	-0.29972862	0.79137375	0.096801927	-0.037913031	1.5522707	0.1026646	-0.2194101	0.8192225	0.11544694	-0.12181222	1.5069443	0.026769711	-0.25569449	0.734532	0.09187591	-0.083936531	1.4145013	0.45231628	-0.30400473	1.0125745	0.43445949	-0.0036708508	1.4309246	0.42236903	-0.18583402	1.0433578	0.42673517	-0.12835194	1.2665189	0.80082229	-0.33295975	1.1319873	0.82919227	0.035538279	1.2968256	0.90684327	-0.24931486	1.2324274	0.91148773	-0.0063310755	1.0716705	0.91502363	-0.19621895	1.1979375	1.3822358	-0.29477032	1.2149256	1.3597858	0.027975266	1.1213355	1.4030788	-0.13066295	1.0011665	1.1156268	-0.3727516	1.2678682	1.0162219	0.12611148	1.0058149	0.88598431	-0.45308967	1.5145012	0.97406127	0.1123481
454	1.812	1.6849413	0.10573855	-0.2644866	0.91794361	0.038846125	-0.077784436	1.5564724	0.079261428	-0.29898506	0.79278239	0.098611328	-0.037641883	1.555692	0.10063135	-0.21857513	0.8207268	0.11688739	-0.1215446	1.5096239	0.025319386	-0.25512469	0.73582235	0.094495375	-0.083589543	1.4220408	0.45196276	-0.30388147	1.0174333	0.43387249	-0.0041364467	1.4381608	0.42217613	-0.18574391	1.0483132	0.42586781	-0.12867851	1.272752	0.80060919	-0.33346453	1.1378231	0.82814392	0.034689208	1.3034449	0.90572187	-0.24962559	1.238588	0.91020643	-0.006857971	1.0782659	0.91420792	-0.19721795	1.2037593	1.3814475	-0.29581746	1.2209205	1.3591189	0.026912721	1.1273347	1.4021304	-0.13165917	1.0065699	1.1149832	-0.37253758	1.2741373	1.0155322	0.12435111	1.0100663	0.88562184	-0.45375141	1.5206578	0.97231769	0.10937089
455	1.816	1.6889158	0.1022515	-0.26386373	0.9182605	0.038840264	-0.077762657	1.5597513	0.07704496	-0.29837578	0.79425246	0.10055564	-0.037334073	1.5586845	0.098449923	-0.21769385	0.82236682	0.11842179	-0.12126203	1.5116222	0.024082498	-0.25454372	0.73725176	0.097227937	-0.083258704	1.4295466	0.45155502	-0.30376874	1.0224022	0.43330991	-0.0046095028	1.4454631	0.4220672	-0.18560655	1.0533997	0.42501578	-0.12899348	1.2789064	0.80044515	-0.33400972	1.1438142	0.82708937	0.033839484	1.3101223	0.9046658	-0.24998959	1.2448328	0.90890874	-0.0073976551	1.0848257	0.9133987	-0.19804863	1.209617	1.3806932	-0.2968833	1.2269652	1.3585076	0.025822085	1.1334093	1.4011969	-0.13270642	1.0120622	1.1143459	-0.37235861	1.2802358	1.0148725	0.12262072	1.0144264	0.88526571	-0.45438791	1.5266476	0.97056506	0.10639184
456	1.82	1.692825	0.098343248	-0.26343423	0.91858581	0.038822333	-0.077733743	1.5627429	0.074708606	-0.29788904	0.79584942	0.10257209	-0.037066099	1.5613041	0.096124631	-0.21681649	0.82414865	0.12003003	-0.12097986	1.5129846	0.023196346	-0.25401794	0.73882004	0.10008163	-0.082955488	1.4369845	0.45106115	-0.30366184	1.0274975	0.43276031	-0.0050858525	1.4527932	0.42199971	-0.18543424	1.0586312	0.42417988	-0.12928826	1.2850031	0.80028129	-0.33460931	1.1499358	0.82603491	0.032986239	1.3168507	0.90368171	-0.25041498	1.2511504	0.90760395	-0.0079413137	1.0914002	0.91261051	-0.1987807	1.215507	1.3799623	-0.29796972	1.2330475	1.3579469	0.024711012	1.1395321	1.4002828	-0.13378758	1.0176351	1.1137052	-0.3722226	1.2861784	1.0142458	0.12091922	1.0189326	0.88491212	-0.45502084	1.5324809	0.96880244	0.10341634
457	1.824	1.6963829	0.093806544	-0.2630156	0.91891958	0.038791	-0.07768753	1.5653691	0.07240055	-0.29746052	0.79757294	0.10463534	-0.036878054	1.5636681	0.093722034	-0.21601229	0.82607624	0.121692	-0.12070683	1.5138988	0.022683354	-0.25359648	0.74051165	0.10308517	-0.082675543	1.4443234	0.45046075	-0.30355477	1.0326712	0.4322306	-0.0055513263	1.4601058	0.42191837	-0.18524646	1.0640142	0.42335675	-0.12955725	1.2910599	0.80008937	-0.33527418	1.1562015	0.82498051	0.032130214	1.3236121	0.90277928	-0.25090108	1.2575402	0.90630823	-0.0084874432	1.0980599	0.91185161	-0.19935616	1.2214234	1.3792536	-0.29908154	1.2391513	1.3574363	0.023585524	1.1456914	1.3993901	-0.13489444	1.0232865	1.1130607	-0.37212598	1.2919914	1.0136359	0.11923185	1.0236055	0.88455826	-0.45566448	1.5381676	0.96702954	0.10043644
458	1.828	1.6995667	0.08852123	-0.26237133	0.91927917	0.038751893	-0.077622898	1.5677087	0.070370167	-0.29709581	0.79936037	0.1067798	-0.036720605	1.5659949	0.091420126	-0.21534203	0.82816065	0.12340645	-0.12044038	1.5146518	0.022559629	-0.25329877	0.74231682	0.10626294	-0.082409576	1.4515246	0.44975968	-0.30344141	1.0378786	0.43173265	-0.0059907778	1.4673744	0.42177565	-0.18506038	1.0695529	0.42253798	-0.12980648	1.2970909	0.79986329	-0.3360189	1.1626289	0.82392248	0.031278331	1.3303815	0.90197605	-0.25144787	1.2639613	0.90503998	-0.0090092764	1.1048729	0.91113357	-0.19961414	1.2273667	1.3785713	-0.30022009	1.2452835	1.3569723	0.022441266	1.1518786	1.3985294	-0.13602892	1.029016	1.1124092	-0.37206312	1.2976824	1.0130186	0.11754963	1.0284331	0.88419381	-0.45631739	1.5437101	0.96524658	0.097441311
459	1.832	1.7026259	0.08259466	-0.26142405	0.91968594	0.038712404	-0.077554777	1.5700682	0.068850833	-0.29684954	0.80119869	0.10904818	-0.036526696	1.5685653	0.089472846	-0.21482244	0.83041807	0.1251799	-0.12017231	1.515509	0.022946628	-0.25315054	0.74426792	0.10960678	-0.082164854	1.4585492	0.44899837	-0.30332935	1.0431702	0.4312598	-0.0064171213	1.4745963	0.42154272	-0.18489068	1.07526	0.4217152	-0.13006002	1.3031082	0.79961185	-0.33686437	1.1691963	0.82285666	0.030447584	1.3371297	0.90130159	-0.25205722	1.2703529	0.90380847	-0.0094707445	1.1118455	0.9104784	-0.19947374	1.2333414	1.3779241	-0.3013871	1.2514697	1.356551	0.021270151	1.1580821	1.3977215	-0.13719657	1.0348172	1.1117439	-0.37204667	1.3032294	1.0123795	0.11588778	1.0333926	0.88380536	-0.45697249	1.5491146	0.96345864	0.094437559
460	1.836	1.7058222	0.076386102	-0.26034202	0.92015522	0.038678766	-0.077503085	1.5727704	0.067908063	-0.29670722	0.80317621	0.11144092	-0.036309587	1.5715872	0.088081961	-0.21441367	0.83286554	0.12701453	-0.11989372	1.5166184	0.023931577	-0.25318046	0.74643652	0.11308172	-0.081962183	1.4653925	0.44825391	-0.30325003	1.0486898	0.43078847	-0.0068713063	1.4817848	0.42122106	-0.18476244	1.0811577	0.42088146	-0.13035095	1.3091258	0.79934943	-0.33782699	1.1758779	0.82177977	0.029654584	1.3438203	0.9007874	-0.25272925	1.276749	0.9026028	-0.0099026572	1.1188121	0.90992274	-0.19925697	1.2393504	1.3773309	-0.3025926	1.2577328	1.356174	0.020072566	1.1642939	1.3969892	-0.1383962	1.0406818	1.1110663	-0.37209846	1.3086234	1.0117268	0.11428555	1.0384871	0.88339062	-0.45763272	1.554394	0.96167346	0.091452568
